<svg width="40" height="40" viewBox="0 0 40 40" fill="none" xmlns="http://www.w3.org/2000/svg">
<rect width="40" height="40" rx="7.646" fill="#BEC4CE"/>
<path d="M24.1677 27.8923C21.2109 27.8923 18.814 25.4953 18.814 22.5386C18.814 19.5818 21.2109 17.1848 24.1677 17.1848C27.1245 17.1848 29.5214 19.5818 29.5214 22.5386C29.5214 25.4953 27.1245 27.8923 24.1677 27.8923Z" fill="#2D2D37"/>
<path d="M11.7772 4.80664L28.6485 4.80664C31.5979 4.80664 33.9888 7.20314 33.9888 10.1594L33.9888 10.1614C33.9888 13.1176 31.5979 15.5141 28.6485 15.5141L11.7772 15.5141C8.82782 15.5141 6.43687 13.1176 6.43687 10.1614L6.43687 10.1594C6.43687 7.20314 8.82782 4.80664 11.7772 4.80664Z" fill="url(#paint0_linear_434_6400)"/>
<path d="M17.1434 10.1471L17.1434 29.842C17.1434 32.7914 14.7469 35.1824 11.7906 35.1824L11.7886 35.1824C8.8324 35.1824 6.4359 32.7914 6.4359 29.842L6.4359 10.1471C6.4359 7.19771 8.8324 4.80676 11.7886 4.80676L11.7906 4.80676C14.7469 4.80676 17.1434 7.19771 17.1434 10.1471Z" fill="url(#paint1_linear_434_6400)"/>
<path d="M11.7896 35.1933C8.83285 35.1933 6.4359 32.7964 6.4359 29.8396C6.4359 26.8828 8.83285 24.4858 11.7896 24.4858C14.7464 24.4858 17.1434 26.8828 17.1434 29.8396C17.1434 32.7964 14.7464 35.1933 11.7896 35.1933Z" fill="white"/>
<path d="M24.174 27.9047C27.1308 27.9047 29.5277 25.5078 29.5277 22.551C29.5277 19.5942 27.1308 17.1973 24.174 17.1973C21.2172 17.1973 18.8203 19.5942 18.8203 22.551C18.8203 25.5078 21.2172 27.9047 24.174 27.9047Z" fill="black"/>
<defs>
<linearGradient id="paint0_linear_434_6400" x1="33.9849" y1="10.1602" x2="6.43331" y2="10.1602" gradientUnits="userSpaceOnUse">
<stop stop-color="#635DFF"/>
<stop offset="1" stop-color="#3885FF"/>
</linearGradient>
<linearGradient id="paint1_linear_434_6400" x1="11.7898" y1="35.1838" x2="11.7898" y2="4.80856" gradientUnits="userSpaceOnUse">
<stop stop-color="#FF4F40"/>
<stop offset="1" stop-color="#FF44DD"/>
</linearGradient>
</defs>
</svg>
